<?xml version="1.0" encoding="UTF-8"?>
<!DOCTYPE svg PUBLIC "-//W3C//DTD SVG 1.1//EN" "http://www.w3.org/Graphics/SVG/1.1/DTD/svg11.dtd">
<svg version="1.1" xmlns="http://www.w3.org/2000/svg" xmlns:xlink="http://www.w3.org/1999/xlink" x="0" y="0" width="24" height="24" viewBox="0, 0, 24, 24">
  <g id="Layer_1">
    <g id="a">
      <path d="M12,2 C6.477,2 2,6.477 2,12 C2,17.523 6.477,22 12,22 C17.523,22 22,17.523 22,12 C22,6.477 17.523,2 12,2 M4,12 C4,7.582 7.582,4 12,4 C16.418,4 20,7.582 20,12 C20,16.418 16.418,20 12,20 C7.582,20 4,16.418 4,12" fill="#000000"/>
      <path d="M18,12 C18,15.314 15.314,18 12,18 C8.686,18 6,15.314 6,12 C6,8.686 8.686,6 12,6 C15.314,6 18,8.686 18,12 z" fill="#000000"/>
    </g>
  </g>
</svg>
