<?xml version="1.0" encoding="UTF-8"?>
<!DOCTYPE svg PUBLIC "-//W3C//DTD SVG 1.1//EN" "http://www.w3.org/Graphics/SVG/1.1/DTD/svg11.dtd">
<svg version="1.1" xmlns="http://www.w3.org/2000/svg" xmlns:xlink="http://www.w3.org/1999/xlink" x="0" y="0" width="24" height="24" viewBox="0, 0, 24, 24">
  <g id="Layer_1">
    <path d="M7.717,13.653 C8.047,13.232 8.65,13.146 9.085,13.457 C9.52,13.767 9.634,14.365 9.343,14.814 L6.176,19.768 C5.949,20.124 5.582,20.368 5.165,20.439 C4.749,20.51 4.322,20.403 3.989,20.143 L3.856,20.025 L1.796,17.986 L1.728,17.911 C1.404,17.515 1.431,16.938 1.791,16.574 C2.151,16.21 2.728,16.177 3.127,16.497 L3.203,16.565 L4.823,18.169 L7.657,13.737 z M21.5,16.25 L21.602,16.255 C22.113,16.306 22.502,16.736 22.502,17.25 C22.502,17.764 22.113,18.194 21.602,18.245 L21.5,18.25 L13,18.25 C12.448,18.25 12,17.802 12,17.25 C12,16.698 12.448,16.25 13,16.25 z M7.716,3.63 C8.034,3.227 8.605,3.129 9.038,3.405 C9.472,3.681 9.626,4.239 9.395,4.698 L9.344,4.788 L6.179,9.76 C5.935,10.144 5.53,10.396 5.077,10.446 C4.625,10.496 4.175,10.338 3.853,10.016 L1.793,7.956 L1.725,7.88 C1.409,7.482 1.442,6.91 1.801,6.551 C2.16,6.192 2.732,6.159 3.13,6.475 L3.206,6.543 L4.824,8.161 L7.655,3.713 L7.715,3.63 z M21.5,6.25 L21.602,6.255 C22.113,6.306 22.502,6.736 22.502,7.25 C22.502,7.764 22.113,8.194 21.602,8.245 L21.5,8.25 L13,8.25 C12.448,8.25 12,7.802 12,7.25 C12,6.698 12.448,6.25 13,6.25 z" fill="#000000"/>
  </g>
</svg>
