<?xml version="1.0" encoding="UTF-8"?>
<!DOCTYPE svg PUBLIC "-//W3C//DTD SVG 1.1//EN" "http://www.w3.org/Graphics/SVG/1.1/DTD/svg11.dtd">
<svg version="1.1" xmlns="http://www.w3.org/2000/svg" xmlns:xlink="http://www.w3.org/1999/xlink" x="0" y="0" width="24" height="24" viewBox="0, 0, 24, 24">
  <g id="Layer_1">
    <path d="M21.775,5.459 C21.644,3.73 20.27,2.356 18.541,2.225 C17.182,2.115 15.041,2 12,2 C8.959,2 6.818,2.114 5.459,2.225 C3.73,2.356 2.356,3.73 2.225,5.459 C2.115,6.818 2,8.959 2,12 C2,15.041 2.114,17.182 2.225,18.541 C2.356,20.27 3.73,21.644 5.459,21.775 C6.818,21.885 8.959,22 12,22 C15.041,22 17.182,21.886 18.541,21.775 C20.27,21.644 21.644,20.27 21.775,18.541 C21.885,17.182 22,15.041 22,12 C22,8.959 21.886,6.818 21.775,5.459 M5.681,6.62 C5.571,6.794 5.571,7.033 5.571,7.51 C5.571,7.987 5.571,8.226 5.681,8.4 C5.738,8.491 5.815,8.568 5.906,8.625 C6.08,8.735 6.319,8.735 6.796,8.735 C7.273,8.735 7.512,8.735 7.686,8.625 C7.777,8.568 7.854,8.491 7.911,8.4 C8.021,8.226 8.021,7.988 8.021,7.51 C8.021,7.033 8.021,6.794 7.911,6.62 C7.854,6.529 7.777,6.452 7.686,6.395 C7.512,6.285 7.273,6.285 6.796,6.285 C6.319,6.285 6.08,6.285 5.906,6.395 C5.815,6.452 5.738,6.529 5.681,6.62 M5.681,15.606 C5.571,15.78 5.571,16.019 5.571,16.496 C5.571,16.973 5.571,17.212 5.681,17.386 C5.738,17.477 5.815,17.554 5.906,17.611 C6.08,17.721 6.319,17.721 6.796,17.721 C7.273,17.721 7.512,17.721 7.686,17.611 C7.777,17.554 7.854,17.477 7.911,17.386 C8.021,17.212 8.021,16.973 8.021,16.496 C8.021,16.019 8.021,15.78 7.911,15.606 C7.854,15.515 7.777,15.438 7.686,15.381 C7.512,15.271 7.273,15.271 6.796,15.271 C6.319,15.271 6.08,15.271 5.906,15.381 C5.815,15.438 5.738,15.515 5.681,15.606 M5.571,11.996 C5.571,11.519 5.571,11.28 5.681,11.106 C5.738,11.015 5.815,10.938 5.906,10.881 C6.08,10.771 6.319,10.771 6.796,10.771 C7.273,10.771 7.512,10.771 7.686,10.881 C7.777,10.938 7.854,11.015 7.911,11.106 C8.021,11.28 8.021,11.519 8.021,11.996 C8.021,12.473 8.021,12.712 7.911,12.886 C7.854,12.977 7.777,13.054 7.686,13.111 C7.512,13.221 7.273,13.221 6.796,13.221 C6.319,13.221 6.08,13.221 5.906,13.111 C5.815,13.054 5.738,12.977 5.681,12.886 C5.571,12.712 5.571,12.473 5.571,11.996 M17.796,17.671 C18.068,17.663 18.322,17.481 18.381,17.128 C18.408,16.96 18.429,16.75 18.429,16.493 C18.429,16.236 18.409,16.025 18.381,15.858 C18.322,15.504 18.068,15.322 17.796,15.314 C16.579,15.282 15.361,15.268 14.143,15.271 C12.243,15.271 11.065,15.297 10.489,15.314 C10.217,15.322 9.964,15.504 9.905,15.857 Q9.855,16.173 9.857,16.493 C9.857,16.75 9.877,16.96 9.905,17.128 C9.964,17.482 10.218,17.663 10.489,17.671 C11.065,17.689 12.243,17.714 14.143,17.714 C16.043,17.714 17.22,17.689 17.796,17.671 M18.381,8.143 C18.322,8.496 18.068,8.678 17.796,8.686 C17.22,8.703 16.042,8.729 14.143,8.729 C12.244,8.729 11.065,8.703 10.489,8.686 C10.217,8.678 9.964,8.496 9.905,8.143 C9.872,7.933 9.856,7.72 9.857,7.507 C9.857,7.25 9.877,7.04 9.905,6.872 C9.964,6.519 10.218,6.337 10.489,6.329 C11.065,6.311 12.243,6.286 14.143,6.286 C16.043,6.286 17.22,6.311 17.796,6.329 C18.068,6.337 18.322,6.519 18.381,6.872 C18.408,7.04 18.429,7.25 18.429,7.507 C18.429,7.764 18.409,7.975 18.381,8.143 M17.796,13.171 C18.068,13.163 18.322,12.981 18.381,12.628 C18.408,12.46 18.429,12.25 18.429,11.993 C18.429,11.736 18.409,11.525 18.381,11.357 C18.322,11.004 18.068,10.823 17.796,10.814 C17.22,10.797 16.042,10.771 14.143,10.771 C12.244,10.771 11.065,10.797 10.489,10.814 C10.217,10.822 9.964,11.004 9.905,11.357 Q9.855,11.673 9.857,11.993 C9.857,12.25 9.877,12.46 9.905,12.628 C9.964,12.982 10.218,13.163 10.489,13.171 C11.065,13.189 12.243,13.214 14.143,13.214 C16.043,13.214 17.22,13.189 17.796,13.171" fill-opacity="0" stroke="#000000" stroke-width="1"/>
    <path d="M5.681,6.617 C5.571,6.791 5.571,7.03 5.571,7.507 C5.571,7.984 5.571,8.223 5.681,8.397 C5.738,8.488 5.815,8.565 5.906,8.622 C6.08,8.732 6.319,8.732 6.796,8.732 C7.273,8.732 7.512,8.732 7.686,8.622 C7.777,8.565 7.854,8.488 7.911,8.397 C8.021,8.223 8.021,7.985 8.021,7.507 C8.021,7.03 8.021,6.791 7.911,6.617 C7.854,6.526 7.777,6.449 7.686,6.392 C7.512,6.282 7.273,6.282 6.796,6.282 C6.319,6.282 6.08,6.282 5.906,6.392 C5.815,6.449 5.738,6.526 5.681,6.617 M5.681,15.603 C5.571,15.777 5.571,16.016 5.571,16.493 C5.571,16.97 5.571,17.209 5.681,17.383 C5.738,17.474 5.815,17.551 5.906,17.608 C6.08,17.718 6.319,17.718 6.796,17.718 C7.273,17.718 7.512,17.718 7.686,17.608 C7.777,17.551 7.854,17.474 7.911,17.383 C8.021,17.209 8.021,16.97 8.021,16.493 C8.021,16.016 8.021,15.777 7.911,15.603 C7.854,15.512 7.777,15.435 7.686,15.378 C7.512,15.268 7.273,15.268 6.796,15.268 C6.319,15.268 6.08,15.268 5.906,15.378 C5.815,15.435 5.738,15.512 5.681,15.603 M5.571,11.993 C5.571,11.516 5.571,11.277 5.681,11.103 C5.738,11.012 5.815,10.935 5.906,10.878 C6.08,10.768 6.319,10.768 6.796,10.768 C7.273,10.768 7.512,10.768 7.686,10.878 C7.777,10.935 7.854,11.012 7.911,11.103 C8.021,11.277 8.021,11.516 8.021,11.993 C8.021,12.47 8.021,12.709 7.911,12.883 C7.854,12.974 7.777,13.051 7.686,13.108 C7.512,13.218 7.273,13.218 6.796,13.218 C6.319,13.218 6.08,13.218 5.906,13.108 C5.815,13.051 5.738,12.974 5.681,12.883 C5.571,12.709 5.571,12.47 5.571,11.993 M17.796,17.668 C18.068,17.66 18.322,17.478 18.381,17.125 C18.408,16.957 18.429,16.747 18.429,16.49 C18.429,16.233 18.409,16.022 18.381,15.855 C18.322,15.501 18.068,15.319 17.796,15.311 C16.579,15.279 15.361,15.265 14.143,15.268 C12.243,15.268 11.065,15.294 10.489,15.311 C10.217,15.319 9.964,15.501 9.905,15.854 Q9.855,16.17 9.857,16.49 C9.857,16.747 9.877,16.957 9.905,17.125 C9.964,17.479 10.218,17.66 10.489,17.668 C11.065,17.686 12.243,17.711 14.143,17.711 C16.043,17.711 17.22,17.686 17.796,17.668 M18.381,8.14 C18.322,8.493 18.068,8.675 17.796,8.683 C17.22,8.7 16.042,8.726 14.143,8.726 C12.244,8.726 11.065,8.7 10.489,8.683 C10.217,8.675 9.964,8.493 9.905,8.14 C9.872,7.93 9.856,7.717 9.857,7.504 C9.857,7.247 9.877,7.037 9.905,6.869 C9.964,6.516 10.218,6.334 10.489,6.326 C11.065,6.308 12.243,6.283 14.143,6.283 C16.043,6.283 17.22,6.308 17.796,6.326 C18.068,6.334 18.322,6.516 18.381,6.869 C18.408,7.037 18.429,7.247 18.429,7.504 C18.429,7.761 18.409,7.972 18.381,8.14 M17.796,13.168 C18.068,13.16 18.322,12.978 18.381,12.625 C18.408,12.457 18.429,12.247 18.429,11.99 C18.429,11.733 18.409,11.522 18.381,11.354 C18.322,11.001 18.068,10.82 17.796,10.811 C17.22,10.794 16.042,10.768 14.143,10.768 C12.244,10.768 11.065,10.794 10.489,10.811 C10.217,10.819 9.964,11.001 9.905,11.354 Q9.855,11.67 9.857,11.99 C9.857,12.247 9.877,12.457 9.905,12.625 C9.964,12.979 10.218,13.16 10.489,13.168 C11.065,13.186 12.243,13.211 14.143,13.211 C16.043,13.211 17.22,13.186 17.796,13.168" fill="#000000"/>
  </g>
</svg>
